<svg width="926" height="872" viewBox="0 0 926 872" fill="none" xmlns="http://www.w3.org/2000/svg">
<path d="M508 867.281C499.4 864.901 493.04 860.301 487 852.091C479.67 842.131 478.27 836.101 478.09 813.701L477.94 794.701L473.86 785.201C461.56 756.581 441.55 715.201 440.02 715.201C439.82 715.201 436.36 716.971 432.33 719.141C410.98 730.611 382.3 738.911 357.15 740.891L349.29 741.511L349.92 745.611C350.26 747.861 351.99 752.621 353.77 756.201L357 762.701L368.5 763.331C388.62 764.431 398.42 768.161 409.27 778.871C418.51 787.991 423.75 800.481 425.15 816.751C426.63 833.901 417.22 847.041 399.45 852.651C371.16 861.591 325.87 858.431 302.13 845.871C276.16 832.121 262.42 805.511 256 756.541C251.75 724.141 257.17 701.311 271.46 691.321C280.17 685.241 290.25 682.001 301 681.841C310.59 681.691 311.81 682.091 324.83 689.651C328.82 691.971 331.19 692.551 338.46 692.961C359.89 694.181 389.48 688.231 407.97 678.981C412.39 676.781 416.15 674.831 416.34 674.671C417.23 673.861 389.24 635.431 382.67 628.451C380.64 626.291 378.67 625.201 376.81 625.191C368.85 625.181 331.44 617.351 315 612.261C291.13 604.871 259.96 590.531 240.29 577.901C193.05 547.561 155.01 505.361 129.84 455.391C125.87 447.521 121.39 437.841 119.88 433.891C115.95 423.631 115.8 423.511 111.81 427.381C100.83 438.031 87.61 464.621 85.05 481.201C84.67 483.671 84.14 486.461 83.88 487.401C83.51 488.701 84.4 489.361 87.7 490.241C94.71 492.101 101.32 496.241 106.87 502.231C114.79 510.791 116.48 518.951 112.11 527.571L109.73 532.281L117.86 538.421C130.31 547.801 140.39 558.501 144.98 567.201C148.69 574.231 148.94 575.241 148.97 583.281C149 591.301 148.75 592.341 145.14 599.361C141.32 606.791 141.29 606.921 142.51 612.351C143.18 615.371 143.55 621.181 143.33 625.271C142.3 643.921 129.67 656.581 112 656.671C108.15 656.681 102.22 656.051 98.83 655.271L92.65 653.831L88.64 657.461C84.49 661.211 76.66 664.201 71 664.201C65.96 664.201 58.05 661.431 52.58 657.761C47.96 654.641 47.04 654.391 42.18 654.891C31.84 655.961 20 650.701 14.38 642.521C8.48 633.951 3.5 615.611 3.5 602.451C3.5 592.691 6.55 576.001 10.62 563.481L14.59 551.251L10.14 546.981C2.78 539.891 1.52 529.021 6.85 518.501C10.79 510.721 18.36 504.381 34.47 495.341C35.43 494.801 36.51 490.781 37.61 483.611C40.86 462.381 44.65 449.821 52.57 434.051C61.86 415.561 76.12 397.521 90.02 386.701C94.25 383.401 98.88 379.751 100.3 378.591L102.88 376.471L100.72 364.091C96.9 342.181 96.13 334.071 96.11 315.201C96.07 270.501 107.07 222.121 126.82 180.201C144.23 143.231 174.08 105.061 207.82 76.6413C218.88 67.3113 243.67 50.4513 258 42.5013C316.1 10.2613 396.6 -3.37873 468.5 6.83127C523.95 14.7113 578.53 39.4513 623.81 77.2413C638.01 89.1013 659.54 112.001 671.33 127.791C712.91 183.481 733.46 245.321 733.49 314.841L733.5 334.981L736.75 335.541C755.18 338.701 770.63 335.751 785.27 326.261C791.47 322.251 800.15 313.711 802.4 309.421C803.71 306.921 803.63 306.641 800.9 304.741C795.29 300.831 786.89 291.651 784.61 286.931C781.03 279.521 780.84 275.321 783.82 268.821C786.3 263.401 787.37 262.411 796.98 256.701C798.48 255.801 798.26 255.161 794.93 250.701C789.22 243.041 783.04 236.861 770.94 226.721C757.9 215.811 754.08 211.281 751.33 203.471C747.54 192.741 750.67 182.251 759.26 176.871C770.32 169.961 778.94 170.571 791.74 179.161L799 184.041L799.6 160.371C800.12 139.971 800.49 135.911 802.26 130.991C809.21 111.721 825.52 104.901 836.4 116.711C840.74 121.411 842.23 125.461 843.18 135.051C843.85 141.841 844.81 141.551 846.01 134.201C849.92 110.171 869.91 99.7613 881.91 115.501C885.33 119.981 887.89 131.751 887 138.951C886.65 141.841 886.73 144.171 887.18 144.141C887.63 144.111 889.36 142.201 891.03 139.911C897.2 131.421 904.5 129.121 912.44 133.171C920.1 137.081 925.5 146.821 925.5 156.721C925.5 163.591 922.02 174.851 915 190.701C906.98 208.801 906.48 210.371 901.92 231.791C897.54 252.381 895.44 258.971 890.84 266.511L887.3 272.321L889.52 277.471C891.25 281.501 891.63 283.851 891.23 288.241C889.95 302.411 878.52 312.541 859.61 316.261C853.67 317.431 853.49 317.561 850.38 323.081C835.7 349.161 815.14 366.501 788.65 375.151C772.88 380.301 764.37 381.631 748.5 381.421C740.53 381.321 732.23 381.121 730.07 380.971L726.15 380.701L723.98 389.201C710.18 443.281 683.16 490.721 643.6 530.321C625.15 548.791 612.2 559.491 593.35 571.861C573.61 584.801 552.49 595.371 527.84 604.651L517.68 608.471L516.02 615.061C510.7 636.241 498.54 660.201 483.9 678.331L477.68 686.031L482.24 693.371C494 712.241 508.95 739.661 516.99 757.101L521.33 766.501L526.02 757.101C539.51 730.071 554.46 715.611 576.33 708.411C587.46 704.751 602.73 704.831 613.89 708.611C624.14 712.081 629.18 715.101 635.44 721.541C642.65 728.971 645.5 733.521 648.17 741.931C652.34 755.071 651.04 769.221 644.45 782.201C630.45 809.801 600.83 836.231 563 854.861C542.57 864.921 534.72 867.371 521.5 867.781C515.72 867.971 509.65 867.741 508 867.281ZM538.92 857.211C557.49 850.571 580.54 837.941 596.77 825.521C613.16 812.971 630.16 793.791 637.08 780.031C643.69 766.921 645.56 751.221 640.94 747.731C633.82 742.351 622.19 742.101 612.08 747.101C600.66 752.761 590.11 764.241 571.52 791.201C551.27 820.591 538.76 834.081 515.68 851.441C510.55 855.301 506.72 858.811 507.18 859.241C510.41 862.341 527.66 861.241 538.92 857.211ZM511.43 845.581C532.55 829.161 543.31 817.761 560.38 793.701C565.45 786.551 572.16 777.101 575.3 772.701C578.43 768.301 585.5 760.181 591 754.661C602.25 743.371 611.16 737.911 620.82 736.391C626.12 735.561 635.19 736.271 637.5 737.701C642.16 740.581 631.09 726.711 625.14 722.221C617.73 716.631 610.05 714.151 598 713.491C579.9 712.501 567.87 717.051 554.29 730.021C542.68 741.121 532.61 757.541 523.6 780.081C519.63 789.991 517.38 792.741 514.48 791.191C512 789.861 512.01 787.871 514.52 782.341C517.14 776.571 517.06 775.691 513.14 766.541C498.7 732.861 468.27 682.211 436.18 638.451L427.19 626.201H409.35C399.53 626.201 391.5 626.451 391.5 626.761C391.5 627.061 395.95 633.031 401.38 640.011C426.11 671.781 449.05 711.701 473 764.701C484.68 790.531 484.71 790.661 485.43 814.201C486.03 833.481 486.22 835.031 488.67 840.321C491.14 845.671 497.82 854.201 499.53 854.201C499.98 854.201 505.33 850.321 511.43 845.581ZM391.48 847.251C401.47 844.741 407.06 841.701 411.76 836.211C415.89 831.381 417.5 826.421 417.49 818.581C417.44 800.611 408.27 783.591 394.81 776.471C387.04 772.371 379.14 770.801 366.5 770.851C357.2 770.881 354.86 771.281 345.96 774.341C339.83 776.441 333.15 779.651 328.78 782.581C321.39 787.541 318.21 788.141 317.71 784.671C317.13 780.661 329.51 772.001 341.37 768.111C345.02 766.911 348.33 765.741 348.74 765.511C349.15 765.281 348.34 762.851 346.95 760.111C345.56 757.371 343.72 751.991 342.86 748.161L341.28 741.201H334.05C328.01 741.201 326.5 740.861 324.95 739.141C323.52 737.571 323.33 736.691 324.15 735.391C325.07 733.931 327.91 733.621 345.11 733.111C377.89 732.141 399.62 727.051 425.45 714.291C436.32 708.911 436.75 708.551 435.36 705.851C432.29 699.861 422.13 683.141 420.98 682.181C419.99 681.361 417.87 681.991 412.49 684.711C394.28 693.871 373.75 698.901 350.5 699.871C332.91 700.611 327.49 699.631 318.2 694.021C314.47 691.761 309.52 689.561 307.2 689.121C296.79 687.151 280.08 692.571 272.18 700.471C265.57 707.081 263.35 714.341 262.76 731.291C261.81 758.311 267.65 789.521 277.23 808.701C288.79 831.811 302.38 841.671 330.38 847.221C344.73 850.061 344.58 850.051 364.5 849.701C379.24 849.441 384.72 848.941 391.48 847.251ZM477.83 673.951C483.74 666.691 493.32 651.191 499.01 639.701C504.51 628.581 510.03 611.971 508.43 611.381C507.95 611.201 502.03 612.411 495.28 614.061C488.53 615.721 481.38 617.361 479.4 617.721C476.15 618.301 475.58 618.911 473.51 624.031C470.54 631.401 464.54 642.421 460.11 648.631C458.18 651.341 456.89 654.041 457.23 654.631C461.66 662.131 472.7 678.201 473.42 678.201C473.94 678.201 475.92 676.291 477.83 673.951ZM79 654.321C81.2 653.311 83.82 651.561 84.82 650.441C86.59 648.441 86.55 648.281 82.92 643.551C76.49 635.171 73.18 625.541 75.94 623.251C77.81 621.701 80.35 622.521 81.1 624.931C84.38 635.381 92.6 644.681 101.14 647.591C119.45 653.831 135.9 642.061 135.97 622.671C136.02 611.241 132.92 606.261 125.75 606.211C123.68 606.201 123.5 606.661 123.5 611.771C123.5 618.091 122.23 621.201 119.66 621.201C116.33 621.201 115.5 619.041 115.46 610.251C115.43 605.061 114.81 600.131 113.87 597.701C111.28 590.951 111.11 589.291 112.95 588.581C115.72 587.521 118.94 589.711 121.03 594.081C123.14 598.481 123.5 598.691 130.67 599.661C134.7 600.211 135.62 599.991 137.45 598.021C140.47 594.781 142.86 585.841 142.13 580.511C140.63 569.591 130.25 556.651 111.98 542.941L103.42 536.511L89.21 535.331C73.24 534.001 62.58 534.801 52.85 538.081C44.97 540.741 23.27 550.971 22.28 552.491C20.45 555.331 13.58 578.341 12.46 585.421C10.71 596.481 11.68 618.041 14.27 625.251C19.87 640.891 26.94 647.201 38.87 647.201C43 647.201 43.06 647.031 40.95 641.081C36.85 629.491 37.15 623.721 41.82 624.391C43.6 624.641 44.29 625.881 45.58 631.201C47.53 639.181 49.52 643.111 54.31 648.421C61.02 655.861 70.63 658.161 79 654.321ZM457.91 637.951C463.15 629.901 466.94 622.301 466.12 621.481C465.89 621.261 462.4 621.751 458.35 622.571C454.31 623.401 447.72 624.391 443.71 624.771C439.7 625.151 436.55 625.851 436.71 626.331C437.35 628.231 450.89 646.201 451.69 646.201C452.16 646.201 454.96 642.491 457.91 637.951ZM453.33 613.681C471.6 611.851 480.82 610.191 498.35 605.591C543.56 593.721 584.45 572.641 618.5 543.681C631.9 532.281 654.25 508.781 663.65 496.201C689.29 461.891 704.83 430.421 715.47 391.201C729.12 340.921 729.88 295.831 717.95 243.961C695.88 148.021 622.7 64.8713 530.13 30.5613C494.16 17.2213 461.77 11.2113 426 11.2313C379.16 11.2613 337.88 21.0213 295 42.2313C261.3 58.8913 238.6 75.1013 212.44 101.191C173.37 140.131 148.71 183.661 133.68 240.201C124.36 275.241 122.15 316.831 127.64 353.801C128.22 357.711 129 361.391 129.37 361.991C129.83 362.731 132.83 362.241 138.88 360.431L147.71 357.781L147.17 352.741C144.75 330.081 144.16 312.351 145.3 296.441C148.35 253.821 156.41 224.271 174.95 187.701C194.36 149.421 218.63 119.301 251.56 92.6013C269.38 78.1513 299.66 60.7013 323.1 51.3613C374.71 30.8013 434.97 26.1913 488.11 38.7513C526.35 47.7813 563.83 65.7713 597.84 91.3913C609.07 99.8613 636.33 127.391 646.67 140.701C701.99 211.971 719.81 301.901 695.82 388.701C683.2 434.351 660.69 473.411 627 508.091C606.35 529.361 587.99 543.471 560.78 558.991C500.4 593.431 429.53 602.981 359 586.161C270.76 565.131 194.64 497.641 162.51 411.931C159.99 405.221 158.84 403.261 157.61 403.581C148.96 405.891 141.5 408.391 141.04 409.131C139.66 411.371 154.04 444.721 163.81 461.911C177.94 486.781 190.68 503.341 212.5 525.211C246.87 559.671 283.83 582.781 329 598.051C372.14 612.651 412.76 617.751 453.33 613.681ZM339.5 609.221C292.3 595.311 256.33 575.031 217 540.141C188.82 515.151 165.09 483.381 147.95 447.701C141.04 433.321 133.5 415.321 133.5 413.211C133.5 411.561 131.44 412.041 126.73 414.801C122.73 417.151 122.35 417.701 122.87 420.311C124.49 428.421 140.11 460.581 150.61 477.421C170.18 508.831 202.46 542.901 232.5 563.851C265.11 586.601 299.93 602.121 338.5 611.081C357.47 615.491 357.93 614.651 339.5 609.221ZM460.01 584.681C506.42 578.601 549.48 560.831 590 531.061C601.46 522.631 629.87 494.821 639.89 482.201C668.82 445.771 689.04 398.571 696.03 351.201C698.24 336.171 698.98 307.361 697.59 290.731C690.65 208.261 645.16 131.341 576.1 85.3113C542.37 62.8313 508.23 49.3013 467 42.0613C449.37 38.9713 408.62 38.6913 390 41.5313C345.37 48.3513 306.46 63.6813 269.5 88.9913C256.7 97.7613 250.16 103.251 236.12 117.041C214.35 138.401 200.71 156.281 186.33 182.271C172.65 206.991 163.39 231.811 158 258.201C153.45 280.431 153.05 284.851 153.03 313.201C153.02 337.451 153.29 342.351 155.36 354.701C163.12 401.031 179.45 439.601 207.02 476.701C226.23 502.551 251.37 525.841 280.31 544.631C312.47 565.501 358.28 581.401 397 585.151C403.05 585.731 409.58 586.401 411.5 586.621C418.35 587.421 448.22 586.221 460.01 584.681ZM50.4 531.221C58.67 528.451 74.75 527.331 89.24 528.521C102.47 529.611 104.73 528.781 106.5 522.201C108.83 513.541 103.91 505.951 92.31 500.321C79.45 494.091 62.31 494.011 44.28 500.111C33.4 503.781 29.17 506.021 22.18 511.771C9.89 521.891 7.32 534.441 15.99 542.051L19.44 545.091L31.72 539.231C38.47 536.001 46.88 532.401 50.4 531.221ZM56.5 489.131C60.07 488.651 65.98 488.251 69.61 488.231L76.23 488.201L77.94 479.451C81.26 462.531 86.28 450.411 96.13 435.511C109.15 415.821 125.69 404.171 149.82 397.691C155.89 396.071 156.58 395.631 156.07 393.781C155.75 392.641 154.07 385.851 152.34 378.701C150.6 371.551 149.09 365.581 148.99 365.441C148.49 364.721 130.27 370.711 123.66 373.761C105.65 382.081 85.46 398.521 72.88 415.111C65.6 424.701 55.12 445.251 51.16 457.701C48.13 467.201 44.5 483.901 44.5 488.291C44.5 491.211 44.68 491.371 47.25 490.701C48.76 490.311 52.93 489.601 56.5 489.131ZM776.19 371.321C795.87 366.361 810.41 358.271 824.02 344.701C831.39 337.361 843.51 321.141 843.5 318.651C843.5 318.071 839.63 317.041 834.9 316.361C830.18 315.671 822.96 314.051 818.87 312.751L811.42 310.391L807.59 315.571C792.48 336.031 765.52 347.101 740.04 343.321C736.21 342.761 732.92 342.441 732.74 342.631C732.55 342.821 731.55 349.021 730.5 356.421C729.46 363.821 728.47 370.501 728.3 371.261C727.82 373.471 733.64 374.091 751.5 373.721C763.97 373.471 770 372.881 776.19 371.321ZM116.51 369.121C121.04 366.811 122.45 365.611 122.07 364.371C118.45 352.651 116.44 309.541 118.43 286.191C124.6 213.881 155.43 147.561 207 95.6913C214.7 87.9513 225.49 78.0313 230.99 73.6613C243.02 64.0713 265.46 48.9613 277.06 42.6413C281.7 40.1113 285.5 37.8813 285.5 37.6813C285.5 36.9913 271 43.9413 260.5 49.6613C179.57 93.7213 123.21 173.911 107.63 267.201C101.99 300.901 102.33 338.271 108.53 366.951C109.16 369.841 109.84 372.201 110.05 372.201C110.27 372.201 113.17 370.811 116.51 369.121ZM860.63 308.361C873.73 305.221 881.47 299.161 883.2 290.681C884.29 285.351 883.77 281.181 881.67 278.411L879.93 276.121L867.47 277.751C847.06 280.411 835.7 278.471 814.67 268.701C808.16 265.671 802.29 263.201 801.63 263.201C798.87 263.201 792.43 267.431 791.02 270.161C787.51 276.941 789.8 284.701 797.52 292.221C804.11 298.641 808.92 301.391 820.11 305.131C836.04 310.461 847.91 311.401 860.63 308.361ZM878.13 268.581C885.51 264.971 888.97 256.921 893.94 231.861C897.59 213.441 899.74 206.671 908.02 187.711C914.95 171.801 916.5 166.311 916.48 157.771C916.43 143.361 908.48 135.231 899.92 140.841C895.52 143.731 894.18 146.571 878.41 186.431L876.54 191.171L879.52 192.711C882.74 194.381 883.68 198.531 881.07 199.531C880.28 199.841 875.73 198.751 870.95 197.131C860.65 193.621 846.77 191.211 836.9 191.201C831.11 191.201 829.48 190.841 828.02 189.221C826.55 187.601 826.45 186.961 827.48 185.721C828.18 184.881 829.76 184.201 830.99 184.201C833.98 184.201 834.33 181.811 835.13 156.201C835.59 141.451 835.42 134.041 834.53 129.761C831.26 114.191 818.65 114.421 810.36 130.201C808.06 134.591 807.99 135.471 807.5 166.851C807.04 196.271 806.84 199.171 805.16 201.031C802.75 203.691 801.14 202.951 799.01 198.221C796.6 192.881 787.96 184.331 782.7 182.071C777.48 179.831 769.48 179.641 765.57 181.661C764.01 182.471 761.51 184.581 760.02 186.361C757.58 189.261 757.33 190.231 757.68 195.651C758.18 203.611 761.72 208.771 773.26 218.381C786.48 229.371 797.55 240.821 803.42 249.561C808.71 257.421 808.71 257.421 819.85 262.781C835.66 270.381 839.83 271.241 858.64 270.821C871.44 270.531 874.98 270.131 878.13 268.581ZM872.63 175.061C881.97 143.241 881.72 120.811 871.98 116.371C868.05 114.581 865.52 114.951 861.73 117.841C856.02 122.191 854.92 125.661 846.94 164.381C845.05 173.551 843.5 181.721 843.5 182.531C843.5 183.591 845.19 184.201 849.46 184.701C852.74 185.081 857.58 185.991 860.21 186.721C868.61 189.061 868.48 189.181 872.63 175.061ZM420.5 525.021C382.13 522.771 343.16 507.931 311 483.321C302.87 477.101 289.97 464.681 279.75 453.241C254.54 425.021 235 381.821 229.3 341.701C227.33 327.861 227.63 292.121 229.82 278.701C236 240.841 249 210.201 271.65 180.111C326.15 107.711 418.25 80.0013 502.75 110.581C535.83 122.561 570.53 147.901 592.61 176.231C643.33 241.271 653.74 330.811 619.07 403.701C607.74 427.511 592.85 449.031 576.52 465.201C548.36 493.091 516.35 511.271 479 520.601C463.69 524.431 440.36 526.191 420.5 525.021ZM456.64 516.741C497.11 511.361 531.1 495.601 562.8 467.531C594.49 439.481 618.72 396.181 628.2 350.701C630.72 338.611 630.91 335.961 630.93 312.701C630.95 290.741 630.68 286.241 628.67 275.701C621.63 238.821 607.12 206.511 585.77 180.201C578.28 170.971 561.3 154.141 552.28 146.991C536.96 134.871 512.13 121.571 492.27 114.841C472.96 108.301 442.04 104.641 420 106.281C377.68 109.451 338.36 126.251 304.72 155.571C274.75 181.671 251.25 220.571 241.53 260.131C239.97 266.491 238.39 273.881 238.02 276.541C237.65 279.201 237.19 282.231 236.99 283.271C236.79 284.311 236.12 291.361 235.5 298.931C233.63 321.841 237.33 351.351 245.09 375.351C250.62 392.451 258.87 410.121 268.36 425.201C282.89 448.271 309.11 474.301 332.56 488.901C368.65 511.391 416.39 522.101 456.64 516.741ZM448.5 440.081C437.5 438.711 430.74 435.351 432.06 431.901C433.02 429.401 434.62 429.331 442.52 431.391C453.08 434.151 463.24 433.441 472.02 429.341C475.61 427.661 479.18 426.521 479.95 426.821C483.84 428.311 481.66 433.061 475.68 436.111C468.21 439.921 458.54 441.331 448.5 440.081ZM431.6 411.651C417.71 408.641 402.84 402.861 391.91 396.221L385.3 392.201L380.75 396.211C376.23 400.191 366.24 404.201 360.83 404.201C357.04 404.201 354.5 402.401 354.5 399.711C354.5 397.171 354.04 397.341 365.25 395.631C369.38 394.991 376.04 391.471 378.72 388.501C381.29 385.671 383.43 378.771 384.15 371.021C384.84 363.671 385.4 362.721 388.47 363.691C391.34 364.601 392.05 370.241 390.31 378.341C388.55 386.541 388.23 386.101 400.3 392.121C416.45 400.191 435.88 405.201 451.04 405.201C471.31 405.201 494.84 396.221 508.85 383.151L514.79 377.601L513.06 372.391C511.34 367.191 510.76 359.201 511.98 357.241C512.88 355.781 517.49 355.941 517.89 357.451C518.08 358.141 518.76 360.951 519.41 363.701C522.29 375.851 528.46 382.371 538.38 383.761C543.73 384.521 545.93 386.541 544.43 389.341C542.4 393.121 528.44 390.081 522.29 384.511C520.71 383.081 520.14 383.341 515.28 387.711C496.73 404.401 473.17 413.321 448.14 413.121C442.56 413.081 435.12 412.421 431.6 411.651ZM461.64 362.871C458.88 359.541 460.62 357.901 468.29 356.611C476.75 355.181 481.46 352.151 484.51 346.181C489.59 336.231 484.71 326.831 473.35 324.701C468.62 323.811 463.41 325.351 456.3 329.741C449.72 333.811 447.14 333.901 446.7 330.101C446.46 328.091 447.25 326.881 450.2 324.691C452.29 323.131 454.16 321.741 454.35 321.601C454.54 321.461 453.5 318.351 452.04 314.701C448.83 306.691 448.96 303.701 452.5 303.701C454.52 303.701 455.48 304.691 457.5 308.841C461.35 316.751 461.95 317.201 468.73 317.201C474.03 317.201 474.63 317.001 474.02 315.451C473.63 314.491 472.14 308.531 470.71 302.201C468.34 291.711 468.1 288.721 468.05 268.201C468.01 248.251 468.27 244.461 470.35 234.741C476.51 205.941 488 188.791 503.5 185.271C524.33 180.541 539.99 190.861 549.22 215.391C555.93 233.211 558.56 248.941 558.65 271.701C558.71 288.601 557.51 299.211 553.94 313.531C552.59 318.941 551.7 323.711 551.96 324.141C552.23 324.571 555.15 325.681 558.46 326.611C565.13 328.481 567.3 330.831 565.5 334.201C564.14 336.751 563.32 336.721 552.9 333.701C537.67 329.291 520.13 330.551 504.11 337.221C496.84 340.241 496.33 340.671 493.02 346.551C486.47 358.171 479.67 363.101 469 363.951C464.28 364.331 462.65 364.091 461.64 362.871ZM546.64 311.491C551.99 289.361 552.53 266.881 548.35 241.201C544.31 216.401 535.89 200.011 524.1 194.001C520.2 192.001 508.49 190.881 507.01 192.351C506.65 192.711 508.46 195.111 511.03 197.681C516.73 203.371 522.65 215.521 525.47 227.311C526.58 231.921 527.49 236.481 527.49 237.431C527.5 238.531 523.76 241.591 517.25 245.811C511.61 249.471 506.01 253.231 504.8 254.191L502.6 255.911L504.8 257.001C506.01 257.601 511.5 259.731 517 261.731C531.74 267.091 531.5 266.861 531.5 275.481C531.5 284.371 529.02 305.591 527.04 313.701C524.71 323.231 524.26 322.711 534.73 322.651L543.96 322.611L546.64 311.491ZM409.1 345.241C405.31 343.111 398.56 340.131 394.1 338.611C387.06 336.211 384.43 335.841 374 335.821C362.23 335.791 361.74 335.881 348.18 340.571C340.57 343.201 333.71 345.111 332.93 344.811C332.14 344.511 331.5 343.131 331.5 341.751C331.5 339.661 332.57 338.691 337.75 336.101C341.19 334.371 344.14 332.841 344.32 332.681C344.49 332.531 343.04 327.741 341.1 322.051C335.39 305.311 334.09 295.851 334.05 270.701C334 246.751 335.24 236.771 340.07 222.391C345.84 205.221 352.39 196.351 363.27 190.991C369.25 188.051 370.86 187.701 378.48 187.701C385.5 187.701 387.88 188.131 392 190.151C411.88 199.911 424.03 228.681 425.25 268.901C426.09 296.581 422.96 316.421 415.39 331.421L412.3 337.541L414.65 339.351C415.94 340.351 417.79 341.431 418.75 341.751C420.64 342.381 422.09 346.431 421.04 348.141C419.84 350.071 416.08 349.161 409.1 345.241ZM408.83 327.821C415.76 313.611 419 290.491 417.54 265.701C415.01 222.851 401.29 196.851 379.96 194.441C372.35 193.591 371.75 194.541 376.51 199.951C382.01 206.191 388.81 220.381 391.94 232.131C393.84 239.271 394.18 241.891 393.32 242.921C392.7 243.671 388.1 247.021 383.1 250.361C367.46 260.821 367.61 259.231 381.76 264.711C388.49 267.321 394.67 270.091 395.5 270.871C398.65 273.851 396.39 304.391 391.85 320.081C390.52 324.691 389.56 328.561 389.72 328.671C390.75 329.421 404.19 333.911 405 333.781C405.55 333.691 407.27 331.011 408.83 327.821Z" fill="black" stroke="black" stroke-width="7"/>
</svg>
