<svg xmlns="http://www.w3.org/2000/svg" width="1016" height="1032" viewBox="0 0 1016 1032">
<g>
<path d="M 576.50 975.08 C567.90,972.70 561.54,968.10 555.50,959.89 C548.17,949.93 546.77,943.90 546.59,921.50 L 546.44 902.50 L 542.36 893.00 C530.06,864.38 510.05,823.00 508.52,823.00 C508.32,823.00 504.86,824.77 500.83,826.94 C479.48,838.41 450.80,846.71 425.65,848.69 L 417.79 849.31 L 418.42 853.41 C418.76,855.66 420.49,860.42 422.27,864.00 L 425.50 870.50 L 437.00 871.13 C457.12,872.23 466.92,875.96 477.77,886.67 C487.01,895.79 492.25,908.28 493.65,924.55 C495.13,941.70 485.72,954.84 467.95,960.45 C439.66,969.39 394.37,966.23 370.63,953.67 C344.66,939.92 330.92,913.31 324.50,864.34 C320.25,831.94 325.67,809.11 339.96,799.12 C348.67,793.04 358.75,789.80 369.50,789.64 C379.09,789.49 380.31,789.89 393.33,797.45 C397.32,799.77 399.69,800.35 406.96,800.76 C428.39,801.98 457.98,796.03 476.47,786.78 C480.89,784.58 484.65,782.63 484.84,782.47 C485.73,781.66 457.74,743.23 451.17,736.25 C449.14,734.09 447.17,733.00 445.31,732.99 C437.35,732.98 399.94,725.15 383.50,720.06 C359.63,712.67 328.46,698.33 308.79,685.70 C261.55,655.36 223.51,613.16 198.34,563.19 C194.37,555.32 189.89,545.64 188.38,541.69 C184.45,531.43 184.30,531.31 180.31,535.18 C169.33,545.83 156.11,572.42 153.55,589.00 C153.17,591.47 152.64,594.26 152.38,595.20 C152.01,596.50 152.90,597.16 156.20,598.04 C163.21,599.90 169.82,604.04 175.37,610.03 C183.29,618.59 184.98,626.75 180.61,635.37 L 178.23 640.08 L 186.36 646.22 C198.81,655.60 208.89,666.30 213.48,675.00 C217.19,682.03 217.44,683.04 217.47,691.08 C217.50,699.10 217.25,700.14 213.64,707.16 C209.82,714.59 209.79,714.72 211.01,720.15 C211.68,723.17 212.05,728.98 211.83,733.07 C210.80,751.72 198.17,764.38 180.50,764.47 C176.65,764.48 170.72,763.85 167.33,763.07 L 161.15 761.63 L 157.14 765.26 C152.99,769.01 145.16,772.00 139.50,772.00 C134.46,772.00 126.55,769.23 121.08,765.56 C116.46,762.44 115.54,762.19 110.68,762.69 C100.34,763.76 88.50,758.50 82.88,750.32 C76.98,741.75 72.00,723.41 72.00,710.25 C72.00,700.49 75.05,683.80 79.12,671.28 L 83.09 659.05 L 78.64 654.78 C71.28,647.69 70.02,636.82 75.35,626.30 C79.29,618.52 86.86,612.18 102.97,603.14 C103.93,602.60 105.01,598.58 106.11,591.41 C109.36,570.18 113.15,557.62 121.07,541.85 C130.36,523.36 144.62,505.32 158.52,494.50 C162.75,491.20 167.38,487.55 168.80,486.39 L 171.38 484.27 L 169.22 471.89 C165.40,449.98 164.63,441.87 164.61,423.00 C164.57,378.30 175.57,329.92 195.32,288.00 C212.73,251.03 242.58,212.86 276.32,184.44 C287.38,175.11 312.17,158.25 326.50,150.30 C384.60,118.06 465.10,104.42 537.00,114.63 C592.45,122.51 647.03,147.25 692.31,185.04 C706.51,196.90 728.04,219.80 739.83,235.59 C781.41,291.28 801.96,353.12 801.99,422.64 L 802.00 442.78 L 805.25 443.34 C823.68,446.50 839.13,443.55 853.77,434.06 C859.97,430.05 868.65,421.51 870.90,417.22 C872.21,414.72 872.13,414.44 869.40,412.54 C863.79,408.63 855.39,399.45 853.11,394.73 C849.53,387.32 849.34,383.12 852.32,376.62 C854.80,371.20 855.87,370.21 865.48,364.50 C866.98,363.60 866.76,362.96 863.43,358.50 C857.72,350.84 851.54,344.66 839.44,334.52 C826.40,323.61 822.58,319.08 819.83,311.27 C816.04,300.54 819.17,290.05 827.76,284.67 C838.82,277.76 847.44,278.37 860.24,286.96 L 867.50 291.84 L 868.10 268.17 C868.62,247.77 868.99,243.71 870.76,238.79 C877.71,219.52 894.02,212.70 904.90,224.51 C909.24,229.21 910.73,233.26 911.68,242.85 C912.35,249.64 913.31,249.35 914.51,242.00 C918.42,217.97 938.41,207.56 950.41,223.30 C953.83,227.78 956.39,239.55 955.50,246.75 C955.15,249.64 955.23,251.97 955.68,251.94 C956.13,251.91 957.86,250.00 959.53,247.71 C965.70,239.22 973.00,236.92 980.94,240.97 C988.60,244.88 994.00,254.62 994.00,264.52 C994.00,271.39 990.52,282.65 983.50,298.50 C975.48,316.60 974.98,318.17 970.42,339.59 C966.04,360.18 963.94,366.77 959.34,374.31 L 955.80 380.12 L 958.02 385.27 C959.75,389.30 960.13,391.65 959.73,396.04 C958.45,410.21 947.02,420.34 928.11,424.06 C922.17,425.23 921.99,425.36 918.88,430.88 C904.20,456.96 883.64,474.30 857.15,482.95 C841.38,488.10 832.87,489.43 817.00,489.22 C809.03,489.12 800.73,488.92 798.57,488.77 L 794.65 488.50 L 792.48 497.00 C778.68,551.08 751.66,598.52 712.10,638.12 C693.65,656.59 680.70,667.29 661.85,679.66 C642.11,692.60 620.99,703.17 596.34,712.45 L 586.18 716.27 L 584.52 722.86 C579.20,744.04 567.04,768.00 552.40,786.13 L 546.18 793.83 L 550.74 801.17 C562.50,820.04 577.45,847.46 585.49,864.90 L 589.83 874.30 L 594.52 864.90 C608.01,837.87 622.96,823.41 644.83,816.21 C655.96,812.55 671.23,812.63 682.39,816.41 C692.64,819.88 697.68,822.90 703.94,829.34 C711.15,836.77 714.00,841.32 716.67,849.73 C720.84,862.87 719.54,877.02 712.95,890.00 C698.95,917.60 669.33,944.03 631.50,962.66 C611.07,972.72 603.22,975.17 590.00,975.58 C584.22,975.77 578.15,975.54 576.50,975.08 ZM 607.42 965.01 C625.99,958.37 649.04,945.74 665.27,933.32 C681.66,920.77 698.66,901.59 705.58,887.83 C712.19,874.72 714.06,859.02 709.44,855.53 C702.32,850.15 690.69,849.90 680.58,854.90 C669.16,860.56 658.61,872.04 640.02,899.00 C619.77,928.39 607.26,941.88 584.18,959.24 C579.05,963.10 575.22,966.61 575.68,967.04 C578.91,970.14 596.16,969.04 607.42,965.01 ZM 579.93 953.38 C601.05,936.96 611.81,925.56 628.88,901.50 C633.95,894.35 640.66,884.90 643.80,880.50 C646.93,876.10 654.00,867.98 659.50,862.46 C670.75,851.17 679.66,845.71 689.32,844.19 C694.62,843.36 703.69,844.07 706.00,845.50 C710.66,848.38 699.59,834.51 693.64,830.02 C686.23,824.43 678.55,821.95 666.50,821.29 C648.40,820.30 636.37,824.85 622.79,837.82 C611.18,848.92 601.11,865.34 592.10,887.88 C588.13,897.79 585.88,900.54 582.98,898.99 C580.50,897.66 580.51,895.67 583.02,890.14 C585.64,884.37 585.56,883.49 581.64,874.34 C567.20,840.66 536.77,790.01 504.68,746.25 L 495.69 734.00 L 477.85 734.00 C468.03,734.00 460.00,734.25 460.00,734.56 C460.00,734.86 464.45,740.83 469.88,747.81 C494.61,779.58 517.55,819.50 541.50,872.50 C553.18,898.33 553.21,898.46 553.93,922.00 C554.53,941.28 554.72,942.83 557.17,948.12 C559.64,953.47 566.32,962.00 568.03,962.00 C568.48,962.00 573.83,958.12 579.93,953.38 ZM 459.98 955.05 C469.97,952.54 475.56,949.50 480.26,944.01 C484.39,939.18 486.00,934.22 485.99,926.38 C485.94,908.41 476.77,891.39 463.31,884.27 C455.54,880.17 447.64,878.60 435.00,878.65 C425.70,878.68 423.36,879.08 414.46,882.14 C408.33,884.24 401.65,887.45 397.28,890.38 C389.89,895.34 386.71,895.94 386.21,892.47 C385.63,888.46 398.01,879.80 409.87,875.91 C413.52,874.71 416.83,873.54 417.24,873.31 C417.65,873.08 416.84,870.65 415.45,867.91 C414.06,865.17 412.22,859.79 411.36,855.96 L 409.78 849.00 L 402.55 849.00 C396.51,849.00 395.00,848.66 393.45,846.94 C392.02,845.37 391.83,844.49 392.65,843.19 C393.57,841.73 396.41,841.42 413.61,840.91 C446.39,839.94 468.12,834.85 493.95,822.09 C504.82,816.71 505.25,816.35 503.86,813.65 C500.79,807.66 490.63,790.94 489.48,789.98 C488.49,789.16 486.37,789.79 480.99,792.51 C462.78,801.67 442.25,806.70 419.00,807.67 C401.41,808.41 395.99,807.43 386.70,801.82 C382.97,799.56 378.02,797.36 375.70,796.92 C365.29,794.95 348.58,800.37 340.68,808.27 C334.07,814.88 331.85,822.14 331.26,839.09 C330.31,866.11 336.15,897.32 345.73,916.50 C357.29,939.61 370.88,949.47 398.88,955.02 C413.23,957.86 413.08,957.85 433.00,957.50 C447.74,957.24 453.22,956.74 459.98,955.05 ZM 546.33 781.75 C552.24,774.49 561.82,758.99 567.51,747.50 C573.01,736.38 578.53,719.77 576.93,719.18 C576.45,719.00 570.53,720.21 563.78,721.86 C557.03,723.52 549.88,725.16 547.90,725.52 C544.65,726.10 544.08,726.71 542.01,731.83 C539.04,739.20 533.04,750.22 528.61,756.43 C526.68,759.14 525.39,761.84 525.73,762.43 C530.16,769.93 541.20,786.00 541.92,786.00 C542.44,786.00 544.42,784.09 546.33,781.75 ZM 147.50 762.12 C149.70,761.11 152.32,759.36 153.32,758.24 C155.09,756.24 155.05,756.08 151.42,751.35 C144.99,742.97 141.68,733.34 144.44,731.05 C146.31,729.50 148.85,730.32 149.60,732.73 C152.88,743.18 161.10,752.48 169.64,755.39 C187.95,761.63 204.40,749.86 204.47,730.47 C204.52,719.04 201.42,714.06 194.25,714.01 C192.18,714.00 192.00,714.46 192.00,719.57 C192.00,725.89 190.73,729.00 188.16,729.00 C184.83,729.00 184.00,726.84 183.96,718.05 C183.93,712.86 183.31,707.93 182.37,705.50 C179.78,698.75 179.61,697.09 181.45,696.38 C184.22,695.32 187.44,697.51 189.53,701.88 C191.64,706.28 192.00,706.49 199.17,707.46 C203.20,708.01 204.12,707.79 205.95,705.82 C208.97,702.58 211.36,693.64 210.63,688.31 C209.13,677.39 198.75,664.45 180.48,650.74 L 171.92 644.31 L 157.71 643.13 C141.74,641.80 131.08,642.60 121.35,645.88 C113.47,648.54 91.77,658.77 90.78,660.29 C88.95,663.13 82.08,686.14 80.96,693.22 C79.21,704.28 80.18,725.84 82.77,733.05 C88.37,748.69 95.44,755.00 107.37,755.00 C111.50,755.00 111.56,754.83 109.45,748.88 C105.35,737.29 105.65,731.52 110.32,732.19 C112.10,732.44 112.79,733.68 114.08,739.00 C116.03,746.98 118.02,750.91 122.81,756.22 C129.52,763.66 139.13,765.96 147.50,762.12 ZM 526.41 745.75 C531.65,737.70 535.44,730.10 534.62,729.28 C534.39,729.06 530.90,729.55 526.85,730.37 C522.81,731.20 516.22,732.19 512.21,732.57 C508.20,732.95 505.05,733.65 505.21,734.13 C505.85,736.03 519.39,754.00 520.19,754.00 C520.66,754.00 523.46,750.29 526.41,745.75 ZM 521.83 721.48 C540.10,719.65 549.32,717.99 566.85,713.39 C612.06,701.52 652.95,680.44 687.00,651.48 C700.40,640.08 722.75,616.58 732.15,604.00 C757.79,569.69 773.33,538.22 783.97,499.00 C797.62,448.72 798.38,403.63 786.45,351.76 C764.38,255.82 691.20,172.67 598.63,138.36 C562.66,125.02 530.27,119.01 494.50,119.03 C447.66,119.06 406.38,128.82 363.50,150.03 C329.80,166.69 307.10,182.90 280.94,208.99 C241.87,247.93 217.21,291.46 202.18,348.00 C192.86,383.04 190.65,424.63 196.14,461.60 C196.72,465.51 197.50,469.19 197.87,469.79 C198.33,470.53 201.33,470.04 207.38,468.23 L 216.21 465.58 L 215.67 460.54 C213.25,437.88 212.66,420.15 213.80,404.24 C216.85,361.62 224.91,332.07 243.45,295.50 C262.86,257.22 287.13,227.10 320.06,200.40 C337.88,185.95 368.16,168.50 391.60,159.16 C443.21,138.60 503.47,133.99 556.61,146.55 C594.85,155.58 632.33,173.57 666.34,199.19 C677.57,207.66 704.83,235.19 715.17,248.50 C770.49,319.77 788.31,409.70 764.32,496.50 C751.70,542.15 729.19,581.21 695.50,615.89 C674.85,637.16 656.49,651.27 629.28,666.79 C568.90,701.23 498.03,710.78 427.50,693.96 C339.26,672.93 263.14,605.44 231.01,519.73 C228.49,513.02 227.34,511.06 226.11,511.38 C217.46,513.69 210.00,516.19 209.54,516.93 C208.16,519.17 222.54,552.52 232.31,569.71 C246.44,594.58 259.18,611.14 281.00,633.01 C315.37,667.47 352.33,690.58 397.50,705.85 C440.64,720.45 481.26,725.55 521.83,721.48 ZM 408.00 717.02 C360.80,703.11 324.83,682.83 285.50,647.94 C257.32,622.95 233.59,591.18 216.45,555.50 C209.54,541.12 202.00,523.12 202.00,521.01 C202.00,519.36 199.94,519.84 195.23,522.60 C191.23,524.95 190.85,525.50 191.37,528.11 C192.99,536.22 208.61,568.38 219.11,585.22 C238.68,616.63 270.96,650.70 301.00,671.65 C333.61,694.40 368.43,709.92 407.00,718.88 C425.97,723.29 426.43,722.45 408.00,717.02 ZM 528.51 692.48 C574.92,686.40 617.98,668.63 658.50,638.86 C669.96,630.43 698.37,602.62 708.39,590.00 C737.32,553.57 757.54,506.37 764.53,459.00 C766.74,443.97 767.48,415.16 766.09,398.53 C759.15,316.06 713.66,239.14 644.60,193.11 C610.87,170.63 576.73,157.10 535.50,149.86 C517.87,146.77 477.12,146.49 458.50,149.33 C413.87,156.15 374.96,171.48 338.00,196.79 C325.20,205.56 318.66,211.05 304.62,224.84 C282.85,246.20 269.21,264.08 254.83,290.07 C241.15,314.79 231.89,339.61 226.50,366.00 C221.95,388.23 221.55,392.65 221.53,421.00 C221.52,445.25 221.79,450.15 223.86,462.50 C231.62,508.83 247.95,547.40 275.52,584.50 C294.73,610.35 319.87,633.64 348.81,652.43 C380.97,673.30 426.78,689.20 465.50,692.95 C471.55,693.53 478.08,694.20 480.00,694.42 C486.85,695.22 516.72,694.02 528.51,692.48 ZM 118.90 639.02 C127.17,636.25 143.25,635.13 157.74,636.32 C170.97,637.41 173.23,636.58 175.00,630.00 C177.33,621.34 172.41,613.75 160.81,608.12 C147.95,601.89 130.81,601.81 112.78,607.91 C101.90,611.58 97.67,613.82 90.68,619.57 C78.39,629.69 75.82,642.24 84.49,649.85 L 87.94 652.89 L 100.22 647.03 C106.97,643.80 115.38,640.20 118.90,639.02 ZM 125.00 596.93 C128.57,596.45 134.48,596.05 138.11,596.03 L 144.73 596.00 L 146.44 587.25 C149.76,570.33 154.78,558.21 164.63,543.31 C177.65,523.62 194.19,511.97 218.32,505.49 C224.39,503.87 225.08,503.43 224.57,501.58 C224.25,500.44 222.57,493.65 220.84,486.50 C219.10,479.35 217.59,473.38 217.49,473.24 C216.99,472.52 198.77,478.51 192.16,481.56 C174.15,489.88 153.96,506.32 141.38,522.91 C134.10,532.50 123.62,553.05 119.66,565.50 C116.63,575.00 113.00,591.70 113.00,596.09 C113.00,599.01 113.18,599.17 115.75,598.50 C117.26,598.11 121.43,597.40 125.00,596.93 ZM 844.69 479.12 C864.37,474.16 878.91,466.07 892.52,452.50 C899.89,445.16 912.01,428.94 912.00,426.45 C912.00,425.87 908.13,424.84 903.40,424.16 C898.68,423.47 891.46,421.85 887.37,420.55 L 879.92 418.19 L 876.09 423.37 C860.98,443.83 834.02,454.90 808.54,451.12 C804.71,450.56 801.42,450.24 801.24,450.43 C801.05,450.62 800.05,456.82 799.00,464.22 C797.96,471.62 796.97,478.30 796.80,479.06 C796.32,481.27 802.14,481.89 820.00,481.52 C832.47,481.27 838.50,480.68 844.69,479.12 ZM 185.01 476.92 C189.54,474.61 190.95,473.41 190.57,472.17 C186.95,460.45 184.94,417.34 186.93,393.99 C193.10,321.68 223.93,255.36 275.50,203.49 C283.20,195.75 293.99,185.83 299.49,181.46 C311.52,171.87 333.96,156.76 345.56,150.44 C350.20,147.91 354.00,145.68 354.00,145.48 C354.00,144.79 339.50,151.74 329.00,157.46 C248.07,201.52 191.71,281.71 176.13,375.00 C170.49,408.70 170.83,446.07 177.03,474.75 C177.66,477.64 178.34,480.00 178.55,480.00 C178.77,480.00 181.67,478.61 185.01,476.92 ZM 929.13 416.16 C942.23,413.02 949.97,406.96 951.70,398.48 C952.79,393.15 952.27,388.98 950.17,386.21 L 948.43 383.92 L 935.97 385.55 C915.56,388.21 904.20,386.27 883.17,376.50 C876.66,373.47 870.79,371.00 870.13,371.00 C867.37,371.00 860.93,375.23 859.52,377.96 C856.01,384.74 858.30,392.50 866.02,400.02 C872.61,406.44 877.42,409.19 888.61,412.93 C904.54,418.26 916.41,419.20 929.13,416.16 ZM 946.63 376.38 C954.01,372.77 957.47,364.72 962.44,339.66 C966.09,321.24 968.24,314.47 976.52,295.51 C983.45,279.60 985.00,274.11 984.98,265.57 C984.93,251.16 976.98,243.03 968.42,248.64 C964.02,251.53 962.68,254.37 946.91,294.23 L 945.04 298.97 L 948.02 300.51 C951.24,302.18 952.18,306.33 949.57,307.33 C948.78,307.64 944.23,306.55 939.45,304.93 C929.15,301.42 915.27,299.01 905.40,299.00 C899.61,299.00 897.98,298.64 896.52,297.02 C895.05,295.40 894.95,294.76 895.98,293.52 C896.68,292.68 898.26,292.00 899.49,292.00 C902.48,292.00 902.83,289.61 903.63,264.00 C904.09,249.25 903.92,241.84 903.03,237.56 C899.76,221.99 887.15,222.22 878.86,238.00 C876.56,242.39 876.49,243.27 876.00,274.65 C875.54,304.07 875.34,306.97 873.66,308.83 C871.25,311.49 869.64,310.75 867.51,306.02 C865.10,300.68 856.46,292.13 851.20,289.87 C845.98,287.63 837.98,287.44 834.07,289.46 C832.51,290.27 830.01,292.38 828.52,294.16 C826.08,297.06 825.83,298.03 826.18,303.45 C826.68,311.41 830.22,316.57 841.76,326.18 C854.98,337.17 866.05,348.62 871.92,357.36 C877.21,365.22 877.21,365.22 888.35,370.58 C904.16,378.18 908.33,379.04 927.14,378.62 C939.94,378.33 943.48,377.93 946.63,376.38 ZM 941.13 282.86 C950.47,251.04 950.22,228.61 940.48,224.17 C936.55,222.38 934.02,222.75 930.23,225.64 C924.52,229.99 923.42,233.46 915.44,272.18 C913.55,281.35 912.00,289.52 912.00,290.33 C912.00,291.39 913.69,292.00 917.96,292.50 C921.24,292.88 926.08,293.79 928.71,294.52 C937.11,296.86 936.98,296.98 941.13,282.86 ZM 489.00 632.82 C450.63,630.57 411.66,615.73 379.50,591.12 C371.37,584.90 358.47,572.48 348.25,561.04 C323.04,532.82 303.50,489.62 297.80,449.50 C295.83,435.66 296.13,399.92 298.32,386.50 C304.50,348.64 317.50,318.00 340.15,287.91 C394.65,215.51 486.75,187.80 571.25,218.38 C604.33,230.36 639.03,255.70 661.11,284.03 C711.83,349.07 722.24,438.61 687.57,511.50 C676.24,535.31 661.35,556.83 645.02,573.00 C616.86,600.89 584.85,619.07 547.50,628.40 C532.19,632.23 508.86,633.99 489.00,632.82 ZM 525.14 624.54 C565.61,619.16 599.60,603.40 631.30,575.33 C662.99,547.28 687.22,503.98 696.70,458.50 C699.22,446.41 699.41,443.76 699.43,420.50 C699.45,398.54 699.18,394.04 697.17,383.50 C690.13,346.62 675.62,314.31 654.27,288.00 C646.78,278.77 629.80,261.94 620.78,254.79 C605.46,242.67 580.63,229.37 560.77,222.64 C541.46,216.10 510.54,212.44 488.50,214.08 C446.18,217.25 406.86,234.05 373.22,263.37 C343.25,289.47 319.75,328.37 310.03,367.93 C308.47,374.29 306.89,381.68 306.52,384.34 C306.15,387.00 305.69,390.03 305.49,391.07 C305.29,392.11 304.62,399.16 304.00,406.73 C302.13,429.64 305.83,459.15 313.59,483.15 C319.12,500.25 327.37,517.92 336.86,533.00 C351.39,556.07 377.61,582.10 401.06,596.70 C437.15,619.19 484.89,629.90 525.14,624.54 ZM 517.00 547.88 C506.00,546.51 499.24,543.15 500.56,539.70 C501.52,537.20 503.12,537.13 511.02,539.19 C521.58,541.95 531.74,541.24 540.52,537.14 C544.11,535.46 547.68,534.32 548.45,534.62 C552.34,536.11 550.16,540.86 544.18,543.91 C536.71,547.72 527.04,549.13 517.00,547.88 ZM 500.10 519.45 C486.21,516.44 471.34,510.66 460.41,504.02 L 453.80 500.00 L 449.25 504.01 C444.73,507.99 434.74,512.00 429.33,512.00 C425.54,512.00 423.00,510.20 423.00,507.51 C423.00,504.97 422.54,505.14 433.75,503.43 C437.88,502.79 444.54,499.27 447.22,496.30 C449.79,493.47 451.93,486.57 452.65,478.82 C453.34,471.47 453.90,470.52 456.97,471.49 C459.84,472.40 460.55,478.04 458.81,486.14 C457.05,494.34 456.73,493.90 468.80,499.92 C484.95,507.99 504.38,513.00 519.54,513.00 C539.81,513.00 563.34,504.02 577.35,490.95 L 583.29 485.40 L 581.56 480.19 C579.84,474.99 579.26,467.00 580.48,465.04 C581.38,463.58 585.99,463.74 586.39,465.25 C586.58,465.94 587.26,468.75 587.91,471.50 C590.79,483.65 596.96,490.17 606.88,491.56 C612.23,492.32 614.43,494.34 612.93,497.14 C610.90,500.92 596.94,497.88 590.79,492.31 C589.21,490.88 588.64,491.14 583.78,495.51 C565.23,512.20 541.67,521.12 516.64,520.92 C511.06,520.88 503.62,520.22 500.10,519.45 ZM 530.14 470.67 C527.38,467.34 529.12,465.70 536.79,464.41 C545.25,462.98 549.96,459.95 553.01,453.98 C558.09,444.03 553.21,434.63 541.85,432.50 C537.12,431.61 531.91,433.15 524.80,437.54 C518.22,441.61 515.64,441.70 515.20,437.90 C514.96,435.89 515.75,434.68 518.70,432.49 C520.79,430.93 522.66,429.54 522.85,429.40 C523.04,429.26 522.00,426.15 520.54,422.50 C517.33,414.49 517.46,411.50 521.00,411.50 C523.02,411.50 523.98,412.49 526.00,416.64 C529.85,424.55 530.45,425.00 537.23,425.00 C542.53,425.00 543.13,424.80 542.52,423.25 C542.13,422.29 540.64,416.33 539.21,410.00 C536.84,399.51 536.60,396.52 536.55,376.00 C536.51,356.05 536.77,352.26 538.85,342.54 C545.01,313.74 556.50,296.59 572.00,293.07 C592.83,288.34 608.49,298.66 617.72,323.19 C624.43,341.01 627.06,356.74 627.15,379.50 C627.21,396.40 626.01,407.01 622.44,421.33 C621.09,426.74 620.20,431.51 620.46,431.94 C620.73,432.37 623.65,433.48 626.96,434.41 C633.63,436.28 635.80,438.63 634.00,442.00 C632.64,444.55 631.82,444.52 621.40,441.50 C606.17,437.09 588.63,438.35 572.61,445.02 C565.34,448.04 564.83,448.47 561.52,454.35 C554.97,465.97 548.17,470.90 537.50,471.75 C532.78,472.13 531.15,471.89 530.14,470.67 ZM 615.14 419.29 C620.49,397.16 621.03,374.68 616.85,349.00 C612.81,324.20 604.39,307.81 592.60,301.80 C588.70,299.80 576.99,298.68 575.51,300.15 C575.15,300.51 576.96,302.91 579.53,305.48 C585.23,311.17 591.15,323.32 593.97,335.11 C595.08,339.72 595.99,344.28 595.99,345.23 C596.00,346.33 592.26,349.39 585.75,353.61 C580.11,357.27 574.51,361.03 573.30,361.99 L 571.10 363.71 L 573.30 364.80 C574.51,365.40 580.00,367.53 585.50,369.53 C600.24,374.89 600.00,374.66 600.00,383.28 C600.00,392.17 597.52,413.39 595.54,421.50 C593.21,431.03 592.76,430.51 603.23,430.45 L 612.46 430.41 L 615.14 419.29 ZM 477.60 453.04 C473.81,450.91 467.06,447.93 462.60,446.41 C455.56,444.01 452.93,443.64 442.50,443.62 C430.73,443.59 430.24,443.68 416.68,448.37 C409.07,451.00 402.21,452.91 401.43,452.61 C400.64,452.31 400.00,450.93 400.00,449.55 C400.00,447.46 401.07,446.49 406.25,443.90 C409.69,442.17 412.64,440.64 412.82,440.48 C412.99,440.33 411.54,435.54 409.60,429.85 C403.89,413.11 402.59,403.65 402.55,378.50 C402.50,354.55 403.74,344.57 408.57,330.19 C414.34,313.02 420.89,304.15 431.77,298.79 C437.75,295.85 439.36,295.50 446.98,295.50 C454.00,295.50 456.38,295.93 460.50,297.95 C480.38,307.71 492.53,336.48 493.75,376.70 C494.59,404.38 491.46,424.22 483.89,439.22 L 480.80 445.34 L 483.15 447.15 C484.44,448.15 486.29,449.23 487.25,449.55 C489.14,450.18 490.59,454.23 489.54,455.94 C488.34,457.87 484.58,456.96 477.60,453.04 ZM 477.33 435.62 C484.26,421.41 487.50,398.29 486.04,373.50 C483.51,330.65 469.79,304.65 448.46,302.24 C440.85,301.39 440.25,302.34 445.01,307.75 C450.51,313.99 457.31,328.18 460.44,339.93 C462.34,347.07 462.68,349.69 461.82,350.72 C461.20,351.47 456.60,354.82 451.60,358.16 C435.96,368.62 436.11,367.03 450.26,372.51 C456.99,375.12 463.17,377.89 464.00,378.67 C467.15,381.65 464.89,412.19 460.35,427.88 C459.02,432.49 458.06,436.36 458.22,436.47 C459.25,437.22 472.69,441.71 473.50,441.58 C474.05,441.49 475.77,438.81 477.33,435.62 Z" fill="rgba(0,0,0,1)"/>
</g>
</svg>